<svg id="Group_65681" data-name="Group 65681" xmlns="http://www.w3.org/2000/svg" xmlns:xlink="http://www.w3.org/1999/xlink" width="16" height="17.162" viewBox="0 0 16 17.162">
  <defs>
    <linearGradient id="linear-gradient" x1="0.5" x2="0.5" y2="1" gradientUnits="objectBoundingBox">
      <stop offset="0" stop-color="#c8f902"/>
      <stop offset="1" stop-color="#82d305"/>
    </linearGradient>
  </defs>
  <g id="Group_65352" data-name="Group 65352">
    <path id="Path_63613" data-name="Path 63613" d="M18.057,35H9.371A1.366,1.366,0,0,0,8,36.371v8.7a1.378,1.378,0,0,0,1.371,1.371h8.7a1.378,1.378,0,0,0,1.371-1.371v-8.7A1.394,1.394,0,0,0,18.057,35Zm.229,10.057a.211.211,0,0,1-.21.21h-8.7a.211.211,0,0,1-.21-.21V36.371a.211.211,0,0,1,.21-.21h8.7a.211.211,0,0,1,.21.21Z" transform="translate(-8 -29.286)" fill="url(#linear-gradient)"/>
    <path id="Path_63614" data-name="Path 63614" d="M42.057,5H33.371A1.366,1.366,0,0,0,32,6.371v3.2h1.143v-3.2a.211.211,0,0,1,.21-.21h8.7a.211.211,0,0,1,.21.21v8.7a.211.211,0,0,1-.21.21H40v1.143h2.057a1.378,1.378,0,0,0,1.371-1.371V6.371A1.366,1.366,0,0,0,42.057,5Z" transform="translate(-27.429 -5)" fill="url(#linear-gradient)"/>
  </g>
</svg>
