<svg id="noun-download-568036" xmlns="http://www.w3.org/2000/svg" width="17.149" height="18.011" viewBox="0 0 17.149 18.011">
  <path id="Path_62369" data-name="Path 62369" d="M16.292,28a.857.857,0,0,0-.857.857v3.43H1.715v-3.43a.857.857,0,1,0-1.715,0v4.287A.857.857,0,0,0,.857,34H16.292a.857.857,0,0,0,.857-.857V28.857A.857.857,0,0,0,16.292,28Z" transform="translate(0 -15.991)" fill="#fff"/>
  <path id="Path_62370" data-name="Path 62370" d="M10.511,13.254l.03.03.043.034a.857.857,0,0,0,.171.107h0l.12.039h.043a.857.857,0,0,0,.167,0,.887.887,0,0,0,.167,0h0a.857.857,0,0,0,.429-.219l5.835-5.573a.857.857,0,1,0-1.188-1.218l-4.356,4.227L12.016.748a.772.772,0,0,0-.857-.755h0A.772.772,0,0,0,10.3.74L10.267,10.6,5.98,6.429a.858.858,0,1,0-1.2,1.23Z" transform="translate(-2.584 0.011)" fill="#fff"/>
</svg>
