<svg id="noun-error-6105462" xmlns="http://www.w3.org/2000/svg" width="15.136" height="13.764" viewBox="0 0 15.136 13.764">
  <path id="Path_62374" data-name="Path 62374" d="M23.289,19.817l-5.465-9.563a2.1,2.1,0,0,0-3.648,0L8.711,19.817a2.1,2.1,0,0,0,1.824,3.142h10.93a2.1,2.1,0,0,0,1.824-3.142Zm-.872,1.594a1.091,1.091,0,0,1-.952.548H10.535a1.1,1.1,0,0,1-.955-1.646l5.465-9.563a1.1,1.1,0,0,1,1.91,0l5.465,9.563A1.091,1.091,0,0,1,22.417,21.411Z" transform="translate(-8.432 -9.195)" fill="#fff"/>
  <path id="Path_62375" data-name="Path 62375" d="M16,19.078a.5.5,0,0,0-.5.5v.279a.5.5,0,0,0,1,0v-.279A.5.5,0,0,0,16,19.078Z" transform="translate(-8.432 -9.195)" fill="#fff"/>
  <path id="Path_62376" data-name="Path 62376" d="M16,12.516a.5.5,0,0,0-.5.5v4.62a.5.5,0,0,0,1,0v-4.62A.5.5,0,0,0,16,12.516Z" transform="translate(-8.432 -9.195)" fill="#fff"/>
</svg>
