<svg xmlns="http://www.w3.org/2000/svg" width="16.022" height="16.023" viewBox="0 0 16.022 16.023">
  <path id="Path_62372" data-name="Path 62372" d="M21.018,13.877a8.121,8.121,0,0,0-8-7.876A8.094,8.094,0,0,0,5,14.012a8.094,8.094,0,0,0,8.01,8.01,8.088,8.088,0,0,0,8-7.874,1.153,1.153,0,0,0,.006-.135A1.178,1.178,0,0,0,21.018,13.877Zm-8.112,4.174a.177.177,0,0,0,.134.071.352.352,0,0,0,.24-.107,4.188,4.188,0,0,0,.774-.961l.249.142q-1.086,1.886-2.3,1.887a1.027,1.027,0,0,1-.738-.263.876.876,0,0,1-.276-.663,2.415,2.415,0,0,1,.125-.676l1-3.426a2.922,2.922,0,0,0,.143-.738.377.377,0,0,0-.138-.285.531.531,0,0,0-.369-.124q-.116,0-.258.009l.089-.285L14,12.24h.427l-1.469,5.09a2.9,2.9,0,0,0-.116.578A.216.216,0,0,0,12.905,18.051Zm1.824-7.31a1.027,1.027,0,0,1-.748.307,1,1,0,0,1-.734-.307A1.013,1.013,0,0,1,12.941,10a1.036,1.036,0,0,1,.3-.748.992.992,0,0,1,.739-.311,1.017,1.017,0,0,1,.752.311,1.029,1.029,0,0,1,.307.748A1.006,1.006,0,0,1,14.73,10.742Z" transform="translate(-5.001 -6)" fill="#9a9a9a"/>
</svg>
