<svg xmlns="http://www.w3.org/2000/svg" width="195.985" height="20.796" viewBox="0 0 195.985 20.796">
  <path id="kawasaki-logo" d="M0,12.479v7.906H18.062V11.353h3.523a48.918,48.918,0,0,1,9.406,1.125c3.972.861,7.495,2.285,7.495,4.309,0,1.686-2.623,3.6-2.7,3.6H61.608a15.19,15.19,0,0,0-1.986-4.722,9.712,9.712,0,0,0-3.6-3.184,18.817,18.817,0,0,0-5.771-1.762v-.413c1.162,0,4.272-1.124,6.97-2.923A11.162,11.162,0,0,0,61.532.413H35.975s2.137,1.762,2.137,3.372c0,3.372-12.066,5.92-16.451,5.92h-3.6V.413H0Zm66.1,0V.525h6.482V6.971L78.319.525h7.606L78.694,8.02l2.885,4.459,5.134,7.906H78.919l-4.8-7.906-1.537,1.61v6.3H66.1V12.479Zm22.223,0c3.072-1.237,7.57-.525,7.57-2.324,0-1.049-1.273-1.162-1.873-1.162-.824,0-1.873.149-2.023,1.386H86.49c0-3.072,2.173-4.834,7.87-4.834,6.857,0,7.27,2.51,7.27,5.958v6.782a1.855,1.855,0,0,0,.787,1.836v.262H96.458L96.2,18.846a7.145,7.145,0,0,1-5.434,1.948c-2.735,0-5.171-1.348-5.171-4.346a3.981,3.981,0,0,1,2.734-3.97Zm14.839,0-2.173-6.521h5.584l1.611,6.521.6,2.4.637-2.4,1.649-6.521h4.872l1.61,6.521.6,2.4.6-2.4,1.686-6.521h5.434l-2.1,6.521-2.51,7.906H115.68l-2.1-7.906-.151-.563-.149.563-1.911,7.906h-5.62Zm23.757,0c3.035-1.237,7.532-.525,7.532-2.324,0-1.049-1.236-1.162-1.873-1.162-.787,0-1.875.149-1.986,1.386h-5.547c0-3.072,2.211-4.834,7.908-4.834,6.82,0,7.232,2.51,7.232,5.958v6.782a1.853,1.853,0,0,0,.787,1.836v.262h-5.921l-.3-1.537a7.1,7.1,0,0,1-5.434,1.948c-2.7,0-5.134-1.348-5.134-4.346a3.946,3.946,0,0,1,2.738-3.97Zm14.877,0a3.565,3.565,0,0,1-.637-2.175c0-3.71,3.823-4.759,6.857-4.759,3.147,0,6.82.713,7.157,4.534h-5.209a1.6,1.6,0,0,0-.562-1.048,1.736,1.736,0,0,0-1.162-.375c-.974,0-1.61.338-1.61,1.049,0,1.424,4.533,1.162,7.195,2.773a3.62,3.62,0,0,1,1.911,3.3c0,3-2.473,5.02-7.758,5.02-3.3,0-6.97-1.011-7.27-4.908h5.471a1.65,1.65,0,0,0,.6,1.349,2.47,2.47,0,0,0,1.424.411c.861,0,1.8-.262,1.8-1.275,0-1.947-6.219-.974-8.205-3.9Zm16.9,0c3.035-1.237,7.532-.525,7.532-2.324,0-1.049-1.275-1.162-1.873-1.162-.787,0-1.875.149-2.023,1.386h-5.508c0-3.072,2.172-4.834,7.906-4.834,6.82,0,7.232,2.51,7.232,5.958v6.782a1.855,1.855,0,0,0,.787,1.836v.262H166.8l-.262-1.537a7.1,7.1,0,0,1-5.434,1.948c-2.735,0-5.172-1.348-5.172-4.346a3.968,3.968,0,0,1,2.773-3.97Zm14.39,0V.525h5.733v9.818L182.5,5.958H189.2l-5.359,5.584.637.938,5.434,7.906h-6.9l-3.11-5.134-1.087,1.087v4.047h-5.733V12.479Zm17.161-6.52V20.386h5.734V5.958Zm0-5.958V4.085h5.734V0Zm-24.02,14.014c-1.873.9-4.346.449-4.346,2.324,0,.711.674,1.2,1.8,1.2C165.708,17.538,166.382,15.963,166.231,14.014Zm-31.777,0c-1.873.9-4.346.449-4.346,2.324,0,.711.674,1.2,1.836,1.2C133.931,17.538,134.6,15.963,134.454,14.014Zm-38.56,0c-1.873.9-4.347.449-4.347,2.324,0,.711.675,1.2,1.8,1.2C95.37,17.538,96.045,15.963,95.894,14.014Z" fill="#ed1c24" fill-rule="evenodd"/>
</svg>
