<svg xmlns="http://www.w3.org/2000/svg" width="23" height="23" viewBox="0 0 23 23">
  <g id="noun-add-1541720" transform="translate(-33 -33)">
    <g id="Group_67725" data-name="Group 67725" transform="translate(33 33)">
      <g id="Group_67724" data-name="Group 67724">
        <path id="Path_63683" data-name="Path 63683" d="M41.364,42.061H35.439A2.439,2.439,0,0,0,33,44.5h0a2.439,2.439,0,0,0,2.439,2.439h5.924a.7.7,0,0,1,.7.7v5.924h0A2.439,2.439,0,0,0,44.5,56h0a2.439,2.439,0,0,0,2.439-2.439V47.636h0a.7.7,0,0,1,.7-.7h5.924A2.439,2.439,0,0,0,56,44.5h0a2.439,2.439,0,0,0-2.439-2.439H47.636a.7.7,0,0,1-.7-.7V35.439h0A2.439,2.439,0,0,0,44.5,33h0a2.439,2.439,0,0,0-2.439,2.439v5.924h0A.7.7,0,0,1,41.364,42.061Z" transform="translate(-33 -33)" fill-rule="evenodd"/>
      </g>
    </g>
  </g>
</svg>
