<svg xmlns="http://www.w3.org/2000/svg" width="28.266" height="23.125" viewBox="0 0 28.266 23.125">
  <g id="noun-next-2342827" transform="translate(-10.945 -13.359)">
    <path id="Path_63686" data-name="Path 63686" d="M26.588,36.045a1.5,1.5,0,0,0,2.122,0L38.77,25.984a1.514,1.514,0,0,0,.328-.493c0-.007,0-.015.007-.022a1.489,1.489,0,0,0,.106-.548,1.514,1.514,0,0,0-.106-.548c0-.007,0-.015-.007-.022a1.5,1.5,0,0,0-.328-.493L28.709,13.8a1.5,1.5,0,0,0-2.121,2.121l7.5,7.5H12.445a1.5,1.5,0,0,0,0,3H34.09l-7.5,7.5A1.5,1.5,0,0,0,26.588,36.045Z"/>
  </g>
</svg>
