<svg xmlns="http://www.w3.org/2000/svg" width="14.896" height="15.656" viewBox="0 0 14.896 15.656">
  <g id="noun-upload-584699" transform="translate(-1.904 -9.5)">
    <g id="Group_67753" data-name="Group 67753" transform="translate(1.904 9.5)">
      <path id="Path_63687" data-name="Path 63687" d="M15.566,11.8h6.28a1.15,1.15,0,1,0,0-2.3H9.25a1.15,1.15,0,1,0,0,2.3h6.192l-.743.761h0L8.436,18.894a1.148,1.148,0,0,0,.018,1.628,1.123,1.123,0,0,0,.814.336,1.1,1.1,0,0,0,.814-.336l4.281-4.334v7.819a1.15,1.15,0,0,0,2.3,0V16.152l4.37,4.37a1.151,1.151,0,1,0,1.628-1.628Z" transform="translate(-8.1 -9.5)"/>
    </g>
  </g>
</svg>
